<svg version="1.2" baseProfile="tiny-ps" xmlns="http://www.w3.org/2000/svg" viewBox="0 0 17 12" width="17" height="12">
	<title>Startup PSD</title>
	<style>
		tspan { white-space:pre }
		.shp0 { fill: #ffffff } 
	</style>
	<g id="Startup PSD">
		<g id="Footer">
			<g id="Footer socials">
				<g id="Group 5 copy">
					<path id="fa-twitter" class="shp0" d="M17 1.42C16.41 1.66 15.77 1.83 15.11 1.89C15.79 1.52 16.31 0.93 16.55 0.22C15.92 0.57 15.21 0.82 14.47 0.96C13.87 0.37 13.02 0 12.08 0C10.26 0 8.8 1.36 8.8 3.03C8.8 3.26 8.83 3.5 8.88 3.72C6.16 3.59 3.73 2.39 2.12 0.55C1.83 1 1.67 1.52 1.67 2.08C1.67 3.13 2.25 4.06 3.13 4.6C2.59 4.58 2.09 4.44 1.65 4.22C1.65 4.23 1.65 4.25 1.65 4.26C1.65 5.73 2.78 6.95 4.28 7.23C4.01 7.29 3.71 7.33 3.42 7.33C3.2 7.33 3 7.31 2.8 7.28C3.21 8.48 4.42 9.36 5.86 9.38C4.74 10.2 3.32 10.68 1.79 10.68C1.52 10.68 1.26 10.67 1 10.64C2.45 11.5 4.18 12 6.04 12C12.07 12 15.37 7.39 15.37 3.38C15.37 3.25 15.37 3.12 15.36 2.99C15.99 2.56 16.55 2.02 17 1.42Z" />
				</g>
			</g>
		</g>
	</g>
</svg>